<?xml version="1.0" encoding="UTF-8"?>
<!-- Created with Inkscape (http://www.inkscape.org/) -->
<svg width="668.16" height="668.16" version="1.1" viewBox="0 0 668.16 668.16" xmlns="http://www.w3.org/2000/svg">
 <g>
  <path d="m173.2 581.84c88.308-0.0444 232.81-0.0444 321.12 0s16.056 0.0806-160.56 0.0806c-176.62 0-248.87-0.0363-160.56-0.0806zm-85-210.73c-0.24335-0.56781-8.0758-18.456-17.405-39.752-42.833-97.771-48.697-111.23-49.17-112.82-2.0909-7.0408 1.5156-15.661 7.98-19.073 2.2709-1.1986 148.34-65.2 150.82-66.085 5.6042-1.9962 12.169-0.48753 16.771 3.854 2.7553 2.5992 2.385 1.8396 15.276 31.335l10.25 23.453-0.1628 68.934-17.074-39.04c-9.3909-21.472-17.527-39.812-18.08-40.757-2.3333-3.983-6.0166-6.6462-10.908-7.887-6.2487-1.5851-5.1981-1.9325-39.261 12.982-15.728 6.8867-37.525 16.424-48.437 21.193-10.912 4.7697-20.739 9.2326-21.838 9.9176-4.2487 2.6486-6.7448 6.4328-7.8702 11.932l-0.66583 3.2533 0.82817 3.3228c0.67973 2.7272 5.4283 13.819 26.493 61.883 14.116 32.208 25.722 58.704 25.792 58.88 0.12305 0.30958-2.7117 2.2522-16.419 11.251l-6.4789 4.2536zm470.67-11.957c-5.4505-3.6259-10.026-6.6988-10.169-6.8286-0.14229-0.12987 7.9027-18.868 17.878-41.641 9.9751-22.773 20.937-47.808 24.36-55.633 7.7529-17.725 8.1517-19.16 6.8451-24.631-1.1526-4.8255-3.1695-8.0054-6.8133-10.741-1.7081-1.2826-5.3563-3.0098-18.391-8.707-8.943-3.9089-32.211-14.095-51.707-22.635-22.245-9.7447-36.388-15.768-37.973-16.173-7.6187-1.9452-15.605 1.1247-19.789 7.6066-0.65494 1.0147-7.9588 17.305-16.231 36.2l-15.04 34.355-0.0817-28.731-0.0817-28.731 11.074-25.312c6.0905-13.922 11.445-25.96 11.899-26.752 3.754-6.5473 12.438-9.8774 19.503-7.4788 1.5822 0.53717 147.57 64.415 150.55 65.872 5.4336 2.6606 8.9885 8.476 9.0019 14.726 3e-3 1.584-0.17754 3.5277-0.40211 4.3194-0.22457 0.79165-6.4944 15.336-13.933 32.32-7.4386 16.984-21.776 49.745-31.86 72.801-10.084 23.056-18.424 42.025-18.532 42.154-0.10794 0.12866-4.6558-2.7327-10.106-6.3586zm-441.73-6.9153c-0.15396-0.396-11.546-26.424-25.317-57.84-13.77-31.416-25.317-57.984-25.659-59.04-1.2153-3.7473-0.12993-8.0239 2.7457-10.819 0.98686-0.95912 2.475-1.8582 4.742-2.8651 17.059-7.5764 94.514-41.388 95.624-41.743 2.029-0.64895 5.2269-0.38435 7.4047 0.61269 2.3738 1.0867 3.8304 2.4425 4.9885 4.6427 0.5359 1.0182 9.9907 22.454 21.011 47.634l20.036 45.783 5e-5 27.977 6e-5 27.977-4.4335 4.32c-2.4384 2.376-5.2284 5.2087-6.1999 6.2949l-1.7664 1.9749-8.2801-5.5964c-17.626-11.913-26.004-17.061-29.08-17.868-2.503-0.6566-7.2401-0.65608-9.8177 1e-3 -3.3182 0.84599-6.807 2.7789-13.062 7.2367-6.4872 4.6231-32.134 22.037-32.455 22.037-0.11023 0-0.32639-0.324-0.48034-0.72zm339.74-9.4719c-7.9017-6.7849-14.093-11.856-20.306-16.631l-4.862-3.737-0.036-54.425 18.273-41.738c10.05-22.956 18.703-42.363 19.228-43.126 2.3311-3.3881 6.7805-5.2117 11.064-4.5346 1.3402 0.21186 100.3 43.173 105.13 45.64 3.781 1.9309 6.2287 6.4812 5.9068 10.981-0.13332 1.8633-0.68751 3.3483-4.4873 12.024-2.3844 5.444-13.29 30.346-24.234 55.338-10.944 24.992-19.941 45.483-19.993 45.535-0.0517 0.052-5.7634-3.631-12.693-8.1844-14.231-9.3517-19.157-12.522-21.763-14.007-5.1176-2.9162-9.8094-3.0065-14.982-0.28828-2.4868 1.3068-8.5019 5.8103-20.798 15.572-4.8313 3.8354-8.8715 6.9734-8.9782 6.9734-0.10669 0-3.0197-2.4263-6.4734-5.3919zm-227.12-129.41c5e-3 -77.743 0.11458-115.42 0.33759-116.39 1.3429-5.8279 6.5056-10.906 12.531-12.327 3.0659-0.72286 166.11-0.71231 169.17 0.01095 5.9328 1.3985 10.786 6.1967 12.353 12.212 0.41751 1.6029 0.47651 15.352 0.47651 111.04v109.21l-4.24-2.9174c-4.8128-3.3115-10.083-6.7802-14.88-9.7944l-3.28-2.0608v-86.674c0-75.354-0.0618-86.941-0.47316-88.715-1.6584-7.1508-5.8889-11.727-12.863-13.914l-2.8241-0.88558h-117.12l-2.9822 0.76129c-6.5303 1.6671-11.385 6.4459-13.253 13.045l-0.71124 2.5134-0.10645 91.68-0.10644 91.68-2.4605 1.7452c-4.3526 3.0872-11.313 8.3431-15.338 11.582-2.1548 1.7339-3.9908 3.1526-4.08 3.1526s-0.15867-51.732-0.15437-114.96zm29.189 4.1662 0.0828-89.366 0.99026-2.08c1.736-3.6464 4.7078-5.9579 8.6204-6.7051 1.3964-0.26668 17.426-0.33914 59.669-0.26975l57.76 0.0949 1.92 0.77199c2.6263 1.056 5.532 3.9617 6.588 6.588l0.77199 1.92 0.0841 84.893 0.0841 84.893-0.72409-0.3794c-0.39825-0.20867-1.8181-1.0067-3.1553-1.7733l-2.4312-1.3939-0.2108-3.6908c-1.3031-22.815-12.22-45.403-27.657-57.224-13.534-10.363-32.058-12.403-46.593-5.1291-11.101 5.5548-20.513 17.053-26.689 32.603-3.3789 8.5078-6.5181 20.941-7.282 28.842-0.12135 1.2551-0.31172 2.4203-0.42304 2.5893-0.11132 0.16905-2.4344 1.7224-5.1624 3.4519s-7.5173 4.8511-10.643 6.9368l-5.6828 3.7923z" fill="#8cb0ee"/>
  <path d="m153.6 556.14c-12.408-0.11818-36.141-0.23556-52.74-0.26084-32.988-0.0502-31.516 0.0352-32.494-1.887-1.3471-2.6491-2.7457-20.516-7.8833-100.71-1.0598-16.544-2.1565-33.24-2.4369-37.102-0.58097-7.9996-0.49521-8.6515 1.3896-10.565 1.5174-1.5405 12.963-9.1249 50.484-33.453 16.368-10.613 34.584-22.497 40.48-26.41 11.465-7.6089 12.367-8.1531 13.504-8.1455 2.151 0.0143 2.3106 0.92163 3.6225 20.594 0.62355 9.3506 2.3554 34.641 3.8486 56.201 6.8009 98.197 9.4304 135.43 9.7674 138.3 0.20005 1.7033 0.2683 3.2513 0.15168 3.44-0.12684 0.20522-1.2011 0.31846-2.6732 0.28178-1.3536-0.0337-12.613-0.15802-25.021-0.27621zm-6.1951-23.684c8.1523-3.9465 9.6371-25.923 2.6575-39.334-5.7094-10.97-14.121-9.3733-17.296 3.2832-0.84423 3.3654-1.1683 11.332-0.62799 15.437 1.8704 14.212 8.8957 23.697 15.267 20.613zm-62.301-78.85c6.4678-3.3446 7.5194-21.652 1.8707-32.564-4.4913-8.6768-10.513-7.7604-13.267 2.0189-0.91449 3.248-0.82416 13.5 0.15346 17.417 2.4538 9.8319 7.1077 15.267 11.242 13.128zm399.87 102.57c-0.13132-0.21248-0.0753-1.7799 0.12456-3.4832 0.19983-1.7033 1.4404-18.577 2.7568-37.497 1.3164-18.92 3.0378-43.616 3.8253-54.88 2.2328-31.936 6.1201-88.408 7.1952-104.52 1.1395-17.081 1.3482-18.178 3.4617-18.192 1.1372-8e-3 2.0414 0.53768 13.504 8.1432 5.896 3.912 24.112 15.797 40.48 26.41 36.904 23.93 48.942 31.897 50.468 33.4 1.8904 1.8618 1.9882 2.6008 1.4052 10.62-0.28076 3.8621-1.3056 19.478-2.2773 34.702-5.184 81.212-6.6851 100.46-8.04 103.11-0.94741 1.853 2.1165 1.7395-53.076 1.9667-27.984 0.1152-52.839 0.29849-55.234 0.4073-3.2375 0.14708-4.4156 0.0987-4.5932-0.1885zm39.098-23.875c6.3223-3.1505 10.692-15.231 10.236-28.3-0.25618-7.3509-1.7801-12.58-4.5641-15.662-6.0542-6.7012-13.864 0.24593-17.176 15.278-1.0757 4.883-1.0022 14.72 0.14181 18.963 2.3137 8.5824 6.4843 12.15 11.362 9.7197zm60.66-78.659c3.6055-1.5202 7.2002-8.8147 8.2573-16.756 0.48439-3.6389 0.19939-11.433-0.51165-13.992-4.4882-16.155-16.842-5.1432-16.838 15.009 3e-3 11.015 3.9773 17.896 9.092 15.74z" fill="#69e851"/>
  <path d="m415.04 556.93c-0.44-0.0525-6.992-0.25055-14.56-0.44008-18.385-0.46042-22.825-1.0407-28.206-3.6862-5.926-2.9135-7.5531-5.6991-13.085-22.402-5.8431-17.643-15.643-38.496-23.591-50.201-1.0419-1.5343-1.3592-1.8141-1.6443-1.4498-0.19428 0.24822-0.89243 0.85402-1.5514 1.3462-2.3142 1.7284-4.1071 4.8748-7.7365 13.576-1.305 3.1288-3.766 8.5686-5.4688 12.089-7.3022 15.094-7.5709 15.742-11.812 28.48-3.1758 9.5372-5.2702 13.867-7.8736 16.278-3.0272 2.8026-7.199 4.4385-13.513 5.2985-3.4734 0.47316-56.031 0.49741-62.958 0.029-6.2329-0.42145-10.843-1.0659-13.187-1.8435-1.9634-0.6513-2.7535-1.8769-3.8139-5.916-4.2598-16.225 3.3625-42.916 21.408-74.966 0.79279-1.408 4.2792-7.528 7.7476-13.6s7.2147-12.696 8.3251-14.72c1.1104-2.024 3.9479-6.8891 6.3054-10.811s4.9329-8.4582 5.723-10.08c1.8085-3.7124 3.6136-9.2546 3.0729-9.4348-0.20991-0.07-0.38166-0.30957-0.38166-0.53245 0-0.28588-0.93898-0.46677-3.188-0.61416-22.543-1.4773-41.356-10.27-46.819-21.881-1.2124-2.5768-1.5222-6.796-0.89498-12.191 1.2862-11.064 5.4299-18.682 14.926-27.44 14.892-13.735 29.858-24.693 60.056-43.97l9.2-5.8728 3e-3 -2.4263c7e-3 -5.1939 1.0662-14.333 2.2839-19.706 4.4366-19.579 13.722-34.133 25.415-39.835 5.8277-2.8417 7.6338-3.3134 12.778-3.337 14.434-0.0664 26.026 7.1159 33.861 20.979 3.1892 5.6432 6.7018 14.58 8.0543 20.492 1.0658 4.6587 2.7217 16.192 2.7251 18.981 5e-3 4.2469 0.28603 4.9454 2.888 7.1848 3.8424 3.307 8.7152 6.3835 19.672 12.42 16.164 8.9058 27.07 17.051 43.088 32.182 8.976 8.4788 12.905 13.357 16.212 20.127 2.5568 5.2351 3.08 7.2558 3.088 11.926 7e-3 4.0988-0.0107 4.2024-1.2025 7.04-2.1929 5.2213-4.7634 8.2478-9.9697 11.738-7.3874 4.9525-23.151 11-34.826 13.361-3.3059 0.66851-6.1044 1.3092-6.219 1.4237-0.36837 0.36837 2.1739 7.4425 3.8926 10.832 0.91639 1.807 3.1929 5.7585 5.0588 8.7812 1.866 3.0226 4.3643 7.2706 5.5518 9.44 1.1876 2.1694 4.6746 8.4083 7.7491 13.864 20.2 35.848 24.884 46.423 27.638 62.4 1.3979 8.1093 0.86394 27.495-0.8742 31.741-1.1048 2.6986-7.0944 4.4558-17.747 5.2062-4.0871 0.28795-23.476 0.39538-25.6 0.14185z" fill="#ee5859"/>
  <path d="m12.8 567.84v-13.92h41.92v-0.809c0-0.44496-1.723-24.961-3.8289-54.48-6.4392-90.26-6.203-86.537-5.6588-89.206 0.94225-4.6205 2.9976-8.3838 6.4584-11.825 1.2434-1.2364 5.7436-4.4716 12.64-9.0869 5.8901-3.9418 10.75-7.3321 10.8-7.534 0.08826-0.35703-3.494-8.5773-46.655-107.06-19.783-45.141-20.593-47.064-21.815-51.84-1.7196-6.7213-1.7397-8.9843-0.13788-15.512 0.64675-2.6359 1.5272-5.5598 1.9565-6.4976 0.90846-1.9843 3.906-6.3387 5.7397-8.3378 1.4169-1.5447 6.9973-5.7026 8.9803-6.6911 0.704-0.35095 34.688-15.263 75.52-33.138 70.955-31.061 74.445-32.551 78.88-33.674 6.8015-1.7218 8.6209-1.7624 14.88-0.33141 8.5965 1.9653 14.135 5.4047 18.8 11.675l2.48 3.3333 0.01-15.813c0.0107-17.079 0.0845-18.206 1.6027-24.458 1.1698-4.8173 2.0529-6.7677 4.7663-10.526 2.5608-3.5473 4.2309-5.1865 7.8672-7.7217 3.9764-2.7723 5.4992-3.4097 11.376-4.7616l4.9818-1.146h165.63l5.0034 1.1609c6.0607 1.4063 7.5636 2.0439 11.53 4.8923 3.6068 2.5903 5.3848 4.3656 7.8788 7.8668 2.5877 3.6328 3.278 5.1524 4.5706 10.062l1.1422 4.3382 0.18112 18.489 0.18112 18.489 2.08-2.969c2.5749-3.6754 4.178-5.2962 7.7605-7.8457 4.1007-2.9183 5.4828-3.5096 11.552-4.9412 4.7898-1.13 5.8136-1.273 8.048-1.1244 2.4668 0.16408 9.1942 1.6249 11.84 2.571 1.6426 0.58739 148 64.682 149.92 65.653 2.0353 1.0314 6.2813 4.1071 8.1002 5.8676 1.865 1.8051 5.1317 6.2809 6.3431 8.6907 1.4053 2.7956 3.2478 10.794 3.2804 14.24 0.0293 3.0954-1.4202 9.9997-2.8547 13.598-0.38649 0.96933-14.988 34.373-32.449 74.231s-31.772 72.604-31.803 72.769c-0.0659 0.34678 14.658 9.9863 23.623 15.465 8.4031 5.1357 10.672 7.5638 12.603 13.485 1.2775 3.9188 1.4134 6.5498 0.85672 16.58-0.93727 16.887-2.816 46.517-6.5883 103.9-1.051 15.989-1.911 29.273-1.911 29.52 0 0.38124 3.3166 0.44921 21.92 0.44921h21.92v27.84h-641.92zm428-11.054c10.719-0.79212 16.464-2.4922 17.594-5.2058 1.0362-2.4904 2.1552-15.051 1.8727-21.021-0.96646-20.421-5.4592-32.044-27.461-71.04-3.0286-5.368-6.7756-12.064-8.3267-14.88s-4.328-7.568-6.1711-10.56c-3.6514-5.9278-6.3442-11.075-7.3651-14.08-1.1561-3.4024-1.7024-5.3469-1.546-5.5032 0.084-0.084 2.8641-0.70716 6.178-1.3849 9.0941-1.8598 22.475-6.5522 30.117-10.562 8.5305-4.4753 12.353-8.3986 15.015-15.412 1.0122-2.6666 1.1288-3.2953 1.1167-6.0177-0.038-8.517-5.9023-19.06-16.108-28.96-16.973-16.464-30.263-26.648-45.716-35.032-11.321-6.142-17.692-10.193-20.986-13.346-2.2108-2.1159-2.3744-2.5851-2.3744-6.8116 0-4.3439-2.0624-16.83-3.7282-22.57-7.0818-24.405-21.561-37.815-40.752-37.744-4.8462 0.0181-6.1622 0.30882-10.978 2.4252-7.2885 3.2034-11.949 7.3551-17.132 15.262-7.522 11.476-12.507 29.394-12.527 45.028l-3e-3 2.5716-8.72 5.563c-30.444 19.422-45.49 30.441-60.701 44.456-10.719 9.8757-14.807 18.64-14.871 31.878l-0.0279 5.76 1.0281 2.0088c4.773 9.3263 16.824 16.483 33.532 19.915 4.0042 0.82243 12.413 1.9162 14.732 1.9162 1.2945 0 1.7478 0.11756 1.7478 0.45334 0 0.24933 0.17175 0.51058 0.38166 0.58055 0.63424 0.21141-1.4534 6.1778-3.6896 10.545-1.11 2.1677-3.3962 6.1733-5.0804 8.9013s-4.5361 7.624-6.3376 10.88c-1.8015 3.256-5.802 10.312-8.8902 15.68-16.433 28.565-23.153 43.312-27.435 60.202-3.2204 12.704-3.0258 26.188 0.45973 31.844 1.0682 1.7334 5.2971 2.6464 15.391 3.3226 6.9423 0.4651 59.504 0.43809 62.958-0.0323 6.3734-0.8682 10.996-2.7104 13.819-5.5077 2.4572-2.4344 4.5223-6.951 8.298-18.148 3.5462-10.517 3.9675-11.532 9.9606-24 2.3264-4.84 5.3116-11.392 6.6336-14.56 3.6262-8.6895 5.5742-12.07 7.8523-13.629 0.5713-0.39078 1.2063-0.91465 1.411-1.1642 0.30539-0.37213 0.59739-0.11886 1.6252 1.4096 8.4387 12.55 17.727 32.481 24.088 51.688 4.9733 15.017 6.8484 18.124 12.605 20.886 5.8063 2.7855 9.0813 3.2169 28.029 3.6924 7.832 0.1965 14.456 0.40349 14.72 0.45997 1.227 0.26247 21.779 0.13741 25.76-0.15675zm-259.36-1.1863c-4.9e-4 -0.484-0.14356-2.104-0.31793-3.6-0.17436-1.496-0.6776-7.976-1.1183-14.4-0.4407-6.424-1.9498-28.096-3.3535-48.16-3.9054-55.822-7.2172-103.69-8.8008-127.2-1.6777-24.909-1.6342-24.64-3.9907-24.64-1.0839 0-2.7426 0.99497-13.203 7.92-6.5796 4.356-23.739 15.552-38.133 24.88-35.263 22.853-51.733 33.771-53.279 35.317-1.6711 1.6712-1.7956 2.4581-1.3611 8.609 0.19558 2.7689 1.4371 21.81 2.759 42.314 4.4751 69.417 6.1653 91.923 7.2168 96.099 0.2006 0.79664 0.7221 1.7843 1.1589 2.1948l0.79417 0.74632 38.294 0.23258c57.712 0.35051 65.817 0.40756 69.734 0.49087l3.6 0.0765zm-38.481-22.937c-6.1217-2.1846-11.121-14.302-11.117-26.944 6e-3 -17.135 8.8314-25.64 16.25-15.659 6.7203 9.041 8.5043 27.093 3.6826 37.265-2.1888 4.6174-5.3954 6.5593-8.8158 5.3387zm-61.518-79.18c-3.2598-1.4846-6.1791-6.704-7.7204-13.803-0.91956-4.2355-0.84987-13.36 0.12787-16.743 2.2119-7.6546 5.8971-9.8101 10.141-5.9316 4.2842 3.9155 6.8414 12.791 6.4821 22.498-0.28811 7.7846-2.385 12.957-5.7712 14.237-1.2299 0.46468-1.7685 0.42227-3.2592-0.25665zm477.01 102.41 37.974-0.21096 0.79417-0.74632c1.3949-1.3109 1.8031-4.1772 3.2432-22.774 1.8541-23.943 7.8906-115.75 7.9649-121.14 0.0473-3.4322 0.0208-3.578-0.8611-4.7379-1.0937-1.4385-14.278-10.231-51.41-34.287-14.344-9.2925-32.035-20.833-39.312-25.645-11.584-7.6596-13.386-8.7495-14.469-8.7495-2.3665 0-2.2878-0.51106-4.1388 26.88-1.5325 22.677-5.2017 75.783-7.5284 108.96-0.61714 8.8-2.0516 29.392-3.1878 45.76s-2.2138 31.081-2.3948 32.695-0.32913 3.2842-0.32913 3.7116v0.77712l17.84-0.1407c9.812-0.0774 34.929-0.23562 55.814-0.35165zm-39.04-23.161c-2.5807-0.86552-5.428-5.1448-6.5899-9.9041-3.68-15.073 2.5464-35.629 11.184-36.924 10.153-1.5225 14.078 23.068 6.2351 39.058-3.0742 6.2676-6.9717 9.064-10.83 7.77zm62.026-79.009c-3.3029-1.3132-5.3861-6.5368-5.6704-14.218-0.35655-9.6339 2.1745-18.452 6.4596-22.504 4.1519-3.9267 7.9548-1.7048 10.163 5.9381 0.97774 3.3836 1.0474 12.508 0.12787 16.743-2.1113 9.7247-6.8462 15.725-11.08 14.041zm-481.1-89.067c6.2397-4.128 11.345-7.6404 11.345-7.8053 0-0.31518-2.3687-5.7404-32.575-74.609-18.946-43.197-20.175-46.23-20.207-49.92-0.05057-5.7432 3.4691-12.057 8.3331-14.948 3.0966-1.8406 98.039-43.235 100.75-43.928 5.4668-1.3958 10.898-0.21523 15.452 3.3586 3.4289 2.6912 1.4228-1.6331 36.924 79.591l2.1999 5.0333 0.1628-69.84-10.448-23.873c-12.121-27.695-12.048-27.543-14.179-29.875-4.1871-4.5814-11.014-6.579-16.767-4.9064-1.9888 0.57815-148.31 64.581-151.65 66.332-2.596 1.3625-5.8549 4.6697-7.0717 7.1765-1.9845 4.0884-2.3397 9.2996-0.8915 13.079 1.6283 4.2497 66.769 152.64 67.006 152.64 0.14535 0 5.3695-3.3774 11.609-7.5054zm500.86-72.175c17.595-40.216 32.155-73.796 32.356-74.622 1.5914-6.5372-1.5793-14.398-7.252-17.979-0.75765-0.47828-12.998-5.9583-27.2-12.178-14.202-6.2195-47.867-20.962-74.811-32.761s-49.808-21.691-50.809-21.982c-2.0988-0.61015-6.0408-0.68637-8.3623-0.16168-4.2486 0.96026-8.9284 4.5919-10.931 8.4831-0.54358 1.056-5.9024 13.165-11.909 26.909l-10.92 24.989v29.075c0 15.991 0.12103 28.939 0.26896 28.771 0.14792-0.1672 5.7128-12.76 12.366-27.984 19.053-43.594 18.277-41.879 19.999-44.22 2.8872-3.9267 7.0557-6.2187 12.806-7.0412 4.0086-0.57337 5.93 0.0673 24.32 8.1089 56.209 24.579 86.431 37.866 87.717 38.565 7.0331 3.8211 10.636 12.308 8.6031 20.268-0.39952 1.5648-6.8205 16.622-17.08 40.053-9.042 20.65-19.907 45.466-24.144 55.146s-7.7473 17.775-7.7998 17.989c-0.10929 0.44584 20.278 14.203 20.589 13.894 0.1123-0.11177 14.6-33.107 32.194-73.323zm-469.83 51.523c6.692-4.523 14.18-9.6489 16.64-11.391 10.358-7.3356 12.584-8.491 17.67-9.1734 1.987-0.26662 3.249-0.25878 5.12 0.0318 4.3505 0.67563 7.1526 2.2762 26.227 14.981l13.184 8.7812 12.512-12.568v-56.497l-20.018-45.723c-11.01-25.148-20.312-46.338-20.672-47.09-1.9595-4.0961-7.2532-6.7424-11.658-5.8279-0.96518 0.20037-8.2658 3.2146-16.224 6.6983-93.952 41.13-83.235 36.329-85.249 38.186-2.9887 2.7549-4.204 7.5283-2.8704 11.275 0.24972 0.70152 11.65 26.836 25.335 58.076 13.684 31.24 25.151 57.428 25.482 58.195l0.60127 1.3946 0.87656-0.5615c0.48211-0.30882 6.3519-4.2621 13.044-8.7851zm342.55-3.8461c19.306-15.345 21.431-16.607 27.334-16.239 4.3194 0.26948 5.1846 0.76298 30.103 17.169 10.84 7.137 11.208 7.3493 11.563 6.6623 1.8129-3.5109 48.008-109.65 48.356-111.11 1.1617-4.8498-1.3295-10.15-5.8956-12.545-1.023-0.53644-24.815-11.022-52.872-23.302-56.163-24.581-52.752-23.25-56.97-22.238-1.9858 0.47638-4.9404 2.3954-6.2481 4.058-0.54715 0.69567-8.7594 18.994-19.36 43.137l-18.41 41.929v54.673l5.28 4.1227c6.1894 4.8328 15.221 12.282 21.76 17.949 4.6151 3.9993 4.6443 4.0181 5.44 3.5006 0.44-0.28619 4.904-3.7822 9.92-7.7689zm-236.87-17.187c2.6917-2.116 7.1835-5.4858 9.9818-7.4884l5.0879-3.6411 0.0181-91.239 0.0181-91.239 0.79133-3.1195c1.7569-6.926 6.5438-11.572 13.687-13.285 2.5823-0.61909 3.9501-0.63346 60.505-0.63565 57.766-2e-3 57.868-1e-3 60.64 0.67241 3.7874 0.92023 6.1907 2.256 8.8584 4.9237 2.7133 2.7133 4.0206 5.1037 4.9226 9.0013l0.67571 2.9196 5.3e-4 86.36 5.3e-4 86.36 2.7995 1.7397c3.9802 2.4735 12.118 7.8568 16.188 10.709 1.9079 1.337 3.5291 2.4309 3.6027 2.4309 0.0736 0 0.0967-49.428 0.0512-109.84l-0.0827-109.84-0.84415-2.3091c-1.9649-5.3747-5.9703-9.1106-11.645-10.861-1.835-0.56614-5.2054-0.5894-85.43-0.5894h-83.52l-2.2726 0.83147c-5.8033 2.1232-10.108 6.9646-11.296 12.704-0.25091 1.2121-0.35103 34.469-0.35103 116.6v114.9l1.36-1.1102c0.748-0.61058 3.5623-2.8414 6.2539-4.9575zm26.969-19.305c2.6443-1.7685 7.4289-4.8814 10.632-6.9176s5.8449-3.7212 5.8698-3.7445c0.0249-0.0233 0.35423-2.2024 0.73174-4.8424 4.5648-31.923 19.273-55.133 39.029-61.589 6.4311-2.1016 16.044-2.5365 22.914-1.0367 16.805 3.6687 30.997 17.324 39.315 37.826 3.7719 9.2978 6.2853 20.682 6.2853 28.47v2.8374l6.7247 3.8586-0.0824-85.35-0.0823-85.35-1.04-2.1125c-1.233-2.5044-3.2414-4.4708-5.784-5.6627l-1.816-0.85133h-119.04l-1.9553 0.90365c-2.3406 1.0817-4.5472 3.2396-5.784 5.6563l-0.9007 1.76-0.0822 89.68c-0.0452 49.324-6e-3 89.68 0.0876 89.68 0.0934 0 2.3334-1.447 4.9777-3.2155z" fill="#000000"/>
 </g>
</svg>
